<svg xmlns="http://www.w3.org/2000/svg" xml:space="preserve" style="fill-rule:evenodd;clip-rule:evenodd;stroke-linejoin:round;stroke-miterlimit:2" viewBox="0 0 2362 792">
  <path d="M.386.012a.344.344 0 0 1-.179-.047.322.322 0 0 1-.123-.128.378.378 0 0 1-.045-.187c0-.071.015-.133.045-.188a.333.333 0 0 1 .122-.128.34.34 0 0 1 .179-.046.343.343 0 0 1 .235.092.29.29 0 0 1 .071.1l-.106.043a.233.233 0 0 0-.048-.068.226.226 0 0 0-.27-.028.225.225 0 0 0-.08.09.286.286 0 0 0-.03.133c0 .05.01.095.03.133a.224.224 0 0 0 .081.091.22.22 0 0 0 .203.015.215.215 0 0 0 .069-.048.252.252 0 0 0 .048-.072l.106.043a.333.333 0 0 1-.308.2Z" style="fill-rule:nonzero" transform="matrix(331.5277 0 0 269.38238 920.895 195.559)"/>
  <path d="M.062-.7h.112V0H.062z" style="fill-rule:nonzero" transform="matrix(331.5277 0 0 269.38238 1159.268 195.559)"/>
  <path d="M.141.212A.19.19 0 0 1 .087.203.335.335 0 0 1 .032.18L.073.089a.733.733 0 0 0 .035.015c.01.003.019.005.026.005a.06.06 0 0 0 .04-.013A.086.086 0 0 0 .201.06L.26-.078.429-.5h.122L.319.053a.82.82 0 0 1-.042.084.167.167 0 0 1-.054.055.156.156 0 0 1-.082.02ZM.23 0 .006-.5h.122l.174.421L.338 0H.23Z" style="fill-rule:nonzero" transform="matrix(331.5277 0 0 269.38238 1228.896 195.559)"/>
  <path d="M.423 0 .418-.093V-.7h.111V0H.423ZM.26.012A.223.223 0 0 1 .141-.02a.222.222 0 0 1-.079-.092.333.333 0 0 1-.028-.138c0-.053.01-.099.028-.138A.216.216 0 0 1 .141-.48.223.223 0 0 1 .26-.512c.042 0 .078.011.108.032.03.022.054.052.07.092a.362.362 0 0 1 .024.138.37.37 0 0 1-.024.138.212.212 0 0 1-.07.092.184.184 0 0 1-.108.032ZM.288-.09a.111.111 0 0 0 .067-.021.128.128 0 0 0 .046-.056.184.184 0 0 0 .017-.083.184.184 0 0 0-.017-.083.128.128 0 0 0-.046-.056.112.112 0 0 0-.068-.02.12.12 0 0 0-.071.02.134.134 0 0 0-.049.056.199.199 0 0 0 .001.166.128.128 0 0 0 .049.056c.02.014.044.021.071.021Z" style="fill-rule:nonzero" transform="matrix(331.5277 0 0 269.38238 1393.657 195.559)"/>
  <path d="M.285.012a.245.245 0 0 1-.219-.126.285.285 0 0 1-.032-.136c0-.051.011-.097.033-.136a.251.251 0 0 1 .09-.093.259.259 0 0 1 .253.001.24.24 0 0 1 .085.1.351.351 0 0 1 .032.155H.134l.015-.014c0 .031.007.057.02.08a.137.137 0 0 0 .053.051.149.149 0 0 0 .073.018.129.129 0 0 0 .076-.021.141.141 0 0 0 .047-.053l.099.042a.233.233 0 0 1-.131.116.286.286 0 0 1-.101.016ZM.156-.295.14-.309h.282l-.015.014a.117.117 0 0 0-.063-.108.144.144 0 0 0-.118 0 .124.124 0 0 0-.05.041.103.103 0 0 0-.02.067Z" style="fill-rule:nonzero" transform="matrix(331.5277 0 0 269.38238 1586.6 195.559)"/>
  <path d="M.244.012a.273.273 0 0 1-.092-.015.216.216 0 0 1-.072-.043.184.184 0 0 1-.046-.064l.097-.043a.127.127 0 0 0 .11.066A.133.133 0 0 0 .303-.1c.016-.009.024-.022.024-.038a.04.04 0 0 0-.018-.035.135.135 0 0 0-.051-.021L.211-.207A.244.244 0 0 1 .1-.265a.121.121 0 0 1-.04-.09c0-.05.016-.089.048-.116a.214.214 0 0 1 .14-.041c.031 0 .059.005.085.014a.179.179 0 0 1 .066.038.122.122 0 0 1 .039.057l-.093.042A.072.072 0 0 0 .307-.4a.14.14 0 0 0-.062-.013.092.092 0 0 0-.053.014.049.049 0 0 0-.019.041c0 .01.006.02.017.028a.164.164 0 0 0 .049.02l.059.014c.033.008.06.021.08.038a.163.163 0 0 1 .046.057c.01.021.015.042.015.063 0 .03-.009.057-.026.079a.168.168 0 0 1-.069.053.259.259 0 0 1-.1.018Z" style="fill-rule:nonzero" transform="matrix(331.5277 0 0 269.38238 1766.626 195.559)"/>
  <path d="M.069 0v-.5H.18V0H.069Zm.056-.595a.063.063 0 0 1-.046-.02.063.063 0 0 1 0-.092.062.062 0 0 1 .046-.019c.018 0 .034.006.047.019a.062.062 0 0 1 .019.046.062.062 0 0 1-.019.046.065.065 0 0 1-.047.02Z" style="fill-rule:nonzero" transform="matrix(331.5277 0 0 269.38238 1921.126 195.559)"/>
  <path d="M.423 0 .418-.093V-.7h.111V0H.423ZM.26.012A.223.223 0 0 1 .141-.02a.222.222 0 0 1-.079-.092.333.333 0 0 1-.028-.138c0-.053.01-.099.028-.138A.216.216 0 0 1 .141-.48.223.223 0 0 1 .26-.512c.042 0 .078.011.108.032.03.022.054.052.07.092a.362.362 0 0 1 .024.138.37.37 0 0 1-.024.138.212.212 0 0 1-.07.092.184.184 0 0 1-.108.032ZM.288-.09a.111.111 0 0 0 .067-.021.128.128 0 0 0 .046-.056.184.184 0 0 0 .017-.083.184.184 0 0 0-.017-.083.128.128 0 0 0-.046-.056.112.112 0 0 0-.068-.02.12.12 0 0 0-.071.02.134.134 0 0 0-.049.056.199.199 0 0 0 .001.166.128.128 0 0 0 .049.056c.02.014.044.021.071.021Z" style="fill-rule:nonzero" transform="matrix(331.5277 0 0 269.38238 1994.065 195.559)"/>
  <path d="M.285.012a.245.245 0 0 1-.219-.126.285.285 0 0 1-.032-.136c0-.051.011-.097.033-.136a.251.251 0 0 1 .09-.093.259.259 0 0 1 .253.001.24.24 0 0 1 .085.1.351.351 0 0 1 .032.155H.134l.015-.014c0 .031.007.057.02.08a.137.137 0 0 0 .053.051.149.149 0 0 0 .073.018.129.129 0 0 0 .076-.021.141.141 0 0 0 .047-.053l.099.042a.233.233 0 0 1-.131.116.286.286 0 0 1-.101.016ZM.156-.295.14-.309h.282l-.015.014a.117.117 0 0 0-.063-.108.144.144 0 0 0-.118 0 .124.124 0 0 0-.05.041.103.103 0 0 0-.02.067Z" style="fill-rule:nonzero" transform="matrix(331.5277 0 0 269.38238 2187.008 195.559)"/>
  <path d="M.228 0v-.594H.013V-.7h.546v.106H.344V0H.228Z" style="fill-rule:nonzero" transform="matrix(331.5277 0 0 269.38238 920.895 464.954)"/>
  <path d="M.063 0v-.7h.112V0H.063Zm.339 0v-.256h.112V0H.402Zm0-.256a.225.225 0 0 0-.014-.092.089.089 0 0 0-.038-.046.114.114 0 0 0-.057-.013C.255-.408.226-.396.206-.37c-.021.025-.031.062-.031.109H.132c0-.053.008-.098.024-.136a.185.185 0 0 1 .066-.085.175.175 0 0 1 .102-.03c.04 0 .074.008.102.024.028.016.05.041.065.074a.313.313 0 0 1 .023.132v.026H.402Z" style="fill-rule:nonzero" transform="matrix(331.5277 0 0 269.38238 1099.92 464.954)"/>
  <path d="M.285.012a.245.245 0 0 1-.219-.126.285.285 0 0 1-.032-.136c0-.051.011-.097.033-.136a.251.251 0 0 1 .09-.093.259.259 0 0 1 .253.001.24.24 0 0 1 .085.1.351.351 0 0 1 .032.155H.134l.015-.014c0 .031.007.057.02.08a.137.137 0 0 0 .053.051.149.149 0 0 0 .073.018.129.129 0 0 0 .076-.021.141.141 0 0 0 .047-.053l.099.042a.233.233 0 0 1-.131.116.286.286 0 0 1-.101.016ZM.156-.295.14-.309h.282l-.015.014a.117.117 0 0 0-.063-.108.144.144 0 0 0-.118 0 .124.124 0 0 0-.05.041.103.103 0 0 0-.02.067Z" style="fill-rule:nonzero" transform="matrix(331.5277 0 0 269.38238 1283.585 464.954)"/>
  <path d="M.367 0 .362-.094v-.163a.262.262 0 0 0-.011-.085.107.107 0 0 0-.034-.054.097.097 0 0 0-.062-.018.128.128 0 0 0-.063.015.122.122 0 0 0-.046.047L.048-.388a.226.226 0 0 1 .11-.107.255.255 0 0 1 .097-.017c.049 0 .09.009.122.028a.174.174 0 0 1 .072.082.308.308 0 0 1 .024.128L.47 0H.367ZM.223.012a.213.213 0 0 1-.139-.04.139.139 0 0 1-.05-.113c0-.052.018-.092.053-.119a.233.233 0 0 1 .146-.041h.134v.086H.269c-.045 0-.076.006-.094.019a.06.06 0 0 0-.027.052c0 .019.008.034.024.045a.11.11 0 0 0 .065.017.13.13 0 0 0 .066-.017.127.127 0 0 0 .044-.045.133.133 0 0 0 .015-.063h.033a.28.28 0 0 1-.041.161C.326-.007.283.012.223.012Z" style="fill-rule:nonzero" transform="matrix(331.5277 0 0 269.38238 1463.611 464.954)"/>
  <path d="M.261.012C.208.012.168-.001.14-.028.113-.054.099-.092.099-.141v-.515H.21v.494c0 .023.006.041.017.053.011.012.027.018.048.018.007 0 .014-.002.022-.004A.125.125 0 0 0 .324-.11l.041.085a.24.24 0 0 1-.052.028.158.158 0 0 1-.052.009ZM.016-.404V-.5h.329v.096H.016Z" style="fill-rule:nonzero" transform="matrix(331.5277 0 0 269.38238 1629.7 464.954)"/>
  <path d="M.136-.266c0-.054.01-.098.031-.133a.202.202 0 0 1 .081-.078.218.218 0 0 1 .103-.025v.107a.271.271 0 0 0-.086.013.139.139 0 0 0-.066.04.107.107 0 0 0-.025.074l-.038.002ZM.062 0v-.5h.112V0H.062Z" style="fill-rule:nonzero" transform="matrix(331.5277 0 0 269.38238 1751.707 464.954)"/>
  <path d="M.285.012a.245.245 0 0 1-.219-.126.285.285 0 0 1-.032-.136c0-.051.011-.097.033-.136a.251.251 0 0 1 .09-.093.259.259 0 0 1 .253.001.24.24 0 0 1 .085.1.351.351 0 0 1 .032.155H.134l.015-.014c0 .031.007.057.02.08a.137.137 0 0 0 .053.051.149.149 0 0 0 .073.018.129.129 0 0 0 .076-.021.141.141 0 0 0 .047-.053l.099.042a.233.233 0 0 1-.131.116.286.286 0 0 1-.101.016ZM.156-.295.14-.309h.282l-.015.014a.117.117 0 0 0-.063-.108.144.144 0 0 0-.118 0 .124.124 0 0 0-.05.041.103.103 0 0 0-.02.067Z" style="fill-rule:nonzero" transform="matrix(331.5277 0 0 269.38238 1858.468 464.954)"/>
  <path d="M.386.012a.344.344 0 0 1-.179-.047.322.322 0 0 1-.123-.128.378.378 0 0 1-.045-.187c0-.071.015-.133.045-.188a.333.333 0 0 1 .122-.128.34.34 0 0 1 .179-.046.343.343 0 0 1 .235.092.29.29 0 0 1 .071.1l-.106.043a.233.233 0 0 0-.048-.068.226.226 0 0 0-.27-.028.225.225 0 0 0-.08.09.286.286 0 0 0-.03.133c0 .05.01.095.03.133a.224.224 0 0 0 .081.091.22.22 0 0 0 .203.015.215.215 0 0 0 .069-.048.252.252 0 0 0 .048-.072l.106.043a.333.333 0 0 1-.308.2Z" style="fill-rule:nonzero" transform="matrix(331.5277 0 0 269.38238 920.895 734.333)"/>
  <path d="M.292.012a.26.26 0 0 1-.134-.034.244.244 0 0 1-.091-.092.274.274 0 0 1-.033-.136c0-.051.011-.097.033-.136a.244.244 0 0 1 .09-.093.265.265 0 0 1 .133-.033.246.246 0 0 1 .224.126.273.273 0 0 1 .032.136c0 .051-.01.097-.032.136a.25.25 0 0 1-.222.126Zm0-.103a.135.135 0 0 0 .073-.02.143.143 0 0 0 .05-.056.184.184 0 0 0 .018-.083.184.184 0 0 0-.018-.083.145.145 0 0 0-.051-.056.141.141 0 0 0-.074-.02.141.141 0 0 0-.074.02.143.143 0 0 0-.05.056.184.184 0 0 0-.018.083c0 .031.006.059.018.083.013.023.03.042.051.056.022.013.047.02.075.02Z" style="fill-rule:nonzero" transform="matrix(331.5277 0 0 269.38238 1159.268 734.333)"/>
  <path d="M.062 0v-.5h.105l.005.067a.159.159 0 0 1 .059-.059.169.169 0 0 1 .082-.02c.04 0 .074.009.102.027a.153.153 0 0 1 .061.082.183.183 0 0 1 .062-.081.158.158 0 0 1 .094-.028c.058 0 .102.019.134.056.031.037.047.093.046.17V0H.701v-.256a.269.269 0 0 0-.013-.092.09.09 0 0 0-.035-.046.092.092 0 0 0-.051-.013.09.09 0 0 0-.081.037.18.18 0 0 0-.028.109V0H.381v-.256a.272.272 0 0 0-.012-.092.09.09 0 0 0-.035-.046.097.097 0 0 0-.051-.013.09.09 0 0 0-.081.037.18.18 0 0 0-.028.109V0H.062Z" style="fill-rule:nonzero" transform="matrix(331.5277 0 0 269.38238 1351.23 734.333)"/>
  <path d="M.067.2v-.7h.105l.007.092V.2H.067Zm.27-.188A.184.184 0 0 1 .229-.02a.204.204 0 0 1-.07-.092.37.37 0 0 1-.024-.138c0-.053.008-.099.024-.138a.184.184 0 0 1 .178-.124c.045 0 .085.011.119.032.033.022.06.052.079.092a.327.327 0 0 1 .028.138c0 .052-.01.098-.028.138a.23.23 0 0 1-.079.092.223.223 0 0 1-.119.032ZM.309-.09A.136.136 0 0 0 .43-.167.184.184 0 0 0 .448-.25.184.184 0 0 0 .43-.333a.126.126 0 0 0-.12-.076.116.116 0 0 0-.068.02.137.137 0 0 0-.047.056.198.198 0 0 0-.016.083c0 .031.005.059.016.083a.137.137 0 0 0 .047.056.111.111 0 0 0 .067.021Z" style="fill-rule:nonzero" transform="matrix(331.5277 0 0 269.38238 1630.701 734.333)"/>
  <path d="M.367 0 .362-.094v-.163a.262.262 0 0 0-.011-.085.107.107 0 0 0-.034-.054.097.097 0 0 0-.062-.018.128.128 0 0 0-.063.015.122.122 0 0 0-.046.047L.048-.388a.226.226 0 0 1 .11-.107.255.255 0 0 1 .097-.017c.049 0 .09.009.122.028a.174.174 0 0 1 .072.082.308.308 0 0 1 .024.128L.47 0H.367ZM.223.012a.213.213 0 0 1-.139-.04.139.139 0 0 1-.05-.113c0-.052.018-.092.053-.119a.233.233 0 0 1 .146-.041h.134v.086H.269c-.045 0-.076.006-.094.019a.06.06 0 0 0-.027.052c0 .019.008.034.024.045a.11.11 0 0 0 .065.017.13.13 0 0 0 .066-.017.127.127 0 0 0 .044-.045.133.133 0 0 0 .015-.063h.033a.28.28 0 0 1-.041.161C.326-.007.283.012.223.012Z" style="fill-rule:nonzero" transform="matrix(331.5277 0 0 269.38238 1825.3 734.333)"/>
  <path d="M.062 0v-.5h.105l.007.092V0H.062Zm.339 0v-.256h.112V0H.401Zm0-.256a.225.225 0 0 0-.014-.092.089.089 0 0 0-.038-.046.114.114 0 0 0-.057-.013C.255-.408.225-.396.205-.37c-.021.025-.031.062-.031.109H.132c0-.053.007-.098.023-.136a.192.192 0 0 1 .066-.085.175.175 0 0 1 .102-.03c.04 0 .074.008.102.024.028.016.05.041.066.074a.33.33 0 0 1 .022.132v.026H.401Z" style="fill-rule:nonzero" transform="matrix(331.5277 0 0 269.38238 1991.408 734.333)"/>
  <path d="M.141.212A.19.19 0 0 1 .087.203.335.335 0 0 1 .032.18L.073.089a.733.733 0 0 0 .035.015c.01.003.019.005.026.005a.06.06 0 0 0 .04-.013A.086.086 0 0 0 .201.06L.26-.078.429-.5h.122L.319.053a.82.82 0 0 1-.042.084.167.167 0 0 1-.054.055.156.156 0 0 1-.082.02ZM.23 0 .006-.5h.122l.174.421L.338 0H.23Z" style="fill-rule:nonzero" transform="matrix(331.5277 0 0 269.38238 2173.417 734.333)"/>
  <path d="M1659.96 321.887c0 91.043 186.13 183.768-2 324.388-228.03 170.446-762.386 259.344-762.386 379.305 0 265.34 357.096 447.05 357.096 712.4l-633.87 7.24V316.175l1041.16 5.712Z" style="fill:#f2133c" transform="matrix(-.3186 0 0 .55038 1023.66 -174.022)"/>
  <path d="M191.189 1148.31v45.77l-117.074.06c.454-11.8 2.016-24.44 1.689-36.91-.004-.14-.015-.25-.018-.43a61.1 61.1 0 0 0-.222-3.69c-.022-.25-.052-.51-.082-.78l-.01-.09a4.946 4.946 0 0 1-.043-.42c-.004-.05-.035-.25-.041-.29a52.144 52.144 0 0 0-.509-3.23l116.31.01Z" style="fill:#0d0d0d" transform="matrix(.76426 0 0 .75156 680.405 -479.936)"/>
  <path d="M1659.96 321.887c0 91.043 186.13 183.768-2 324.388-228.03 170.446-762.386 259.344-762.386 379.305 0 265.34 357.096 447.05 357.096 712.4l-633.87 7.24V316.175l1041.16 5.712Z" style="fill:#f2133c" transform="matrix(.3203 0 0 .55333 -198.205 -174.954)"/>
  <path d="M191.189 1148.31v45.77l-118.848.25c-.394-11.44 2.04-22.34 2.516-37.08.004-.11.012-.23.017-.37 0-.03-.002-.06.002-.08v-.02c-.002-.02.001-.03-.001-.05-.079-.87-.186-1.6.044-3.38.02-.16.005-.63.035-.96.002-.03.008-.1.004-.13l-.016-.11c-.014-.1.013-.22.006-.33-.003-.05.006-.26.004-.31-.036-.99.045-1.95-.011-3.22l116.248.02Z" style="fill:#0d0d0d" transform="matrix(-.76268 0 0 .75156 145.814 -471.05)"/>
</svg>
