<?xml version="1.0" encoding="UTF-8" standalone="no"?>
<!-- Generator: Adobe Illustrator 20.1.0, SVG Export Plug-In . SVG Version: 6.00 Build 0)  -->

<svg
   version="1.1"
   x="0px"
   y="0px"
   viewBox="0 0 135.85391 56.370728"
   xml:space="preserve"
   id="svg30861"
   width="135.85391"
   height="56.370728"
   xmlns="http://www.w3.org/2000/svg"
   xmlns:svg="http://www.w3.org/2000/svg"><defs
   id="defs30865" />
<style
   type="text/css"
   id="style2">
	.st0{fill:#303135;}
	.st1{fill:#666666;}
	.st2{fill:#979797;}
	.st3{font-family:'AlexBrush-Regular';}
	.st4{font-size:65.3427px;}
	.st5{fill:#FFFFFF;}
	.st6{font-family:'GnuolaneRg-Regular';}
	.st7{font-size:21.1922px;}
	.st8{letter-spacing:0.8;}
	.st9{fill:#E4E4E4;}
	.st10{fill:none;}
	.st11{font-family:'KaushanScript-Regular';}
	.st12{font-size:155.0426px;}
	.st13{letter-spacing:-11;}
	.st14{font-size:127.3564px;}
	.st15{letter-spacing:-9;}
	.st16{fill:#4D4D4D;}
	.st17{font-family:'NotoSerif-Bold';}
	.st18{font-size:24.7243px;}
	.st19{clip-path:url(#SVGID_2_);}
	.st20{opacity:0.24;}
	.st21{opacity:0.55;}
	.st22{opacity:0.47;}
	.st23{opacity:0.55;fill:#FFFFFF;}
	.st24{opacity:0.3;}
	.st25{clip-path:url(#SVGID_4_);}
	.st26{fill:#848484;}
	.st27{opacity:0.68;fill:url(#SVGID_5_);}
</style>

<g
   id="Objects"
   transform="matrix(0.85889696,0,0,0.83530349,-3.0091355,-26.202596)">
	<g
   id="g178"
   transform="matrix(0.22604715,0,0,0.17976417,-12.928108,0.88786298)">
		
			
		<g
   id="g176">
			<g
   id="g174">
				
				
				<text
   class="st2 st3 st4"
   id="text73"
   x="290.26547"
   y="276.93668"
   style="font-style:normal;font-variant:normal;font-weight:bold;font-stretch:normal;font-size:65.3427px;font-family:Figtree;-inkscape-font-specification:'Figtree, Bold';font-variant-ligatures:normal;font-variant-caps:normal;font-variant-numeric:normal;font-variant-east-asian:normal;fill:#cccccc;fill-opacity:1">Jo Smith</text>
				<g
   id="photo_10_"
   transform="matrix(1,0,0,1.039773,0,-25.655555)">
					<path
   class="st2"
   d="m 377.1,513 c 0.5,-0.2 1.1,-0.4 1.7,-0.4 h -0.1 c -0.7,0 -1.2,0.1 -1.6,0.4 z"
   id="path75" />
					<path
   class="st2"
   d="m 429.7,547.7 c -0.7,0.6 -1.7,1 -2.7,1 h 0.1 c 1.5,0.1 2.2,-0.4 2.6,-1 z"
   id="path77" />
					<path
   class="st2"
   d="m 378.8,548.8 h 0.5 c -0.5,0 -0.9,0 -1.4,-0.1 0.3,0 0.6,0.1 0.9,0.1 z"
   id="path79" />
					<path
   class="st2"
   d="m 427,512.6 h -0.9 c -0.3,-0.4 -0.7,-0.6 -1.2,-0.6 h -0.8 c 0,-1 -0.8,-1.7 -1.8,-1.7 h -5.8 c -1,0 -1.7,0.8 -1.7,1.7 H 414 c -0.5,0 -0.9,0.2 -1.2,0.6 h -3.1 -16.1 c -0.1,-1 -0.9,-1.8 -1.9,-1.8 h -7.1 c -1,0 -1.9,0.8 -1.9,1.8 h -2.1 -0.3 -1.5 c -0.6,0 -1.2,0.1 -1.7,0.4 0,0 -0.1,0 -0.1,0.1 -1.3,0.7 -2.2,2 -2.2,3.6 v 28.1 c 0,1.4 0.7,2.6 1.8,3.3 0,0 0,0 0,0 0.2,0.1 0.3,0.2 0.5,0.3 -0.2,-0.1 -0.3,-0.2 -0.5,-0.3 0.3,0.3 0.7,0.4 1.1,0.5 0.1,0 0.2,0 0.3,0.1 0.4,0.1 0.9,0.1 1.4,0.1 h 0.6 47 c 1,0 2,-0.4 2.7,-1 0,0 -4.7,-17.1 -4.7,-17.1 0.8,-0.7 6,15.3 6,14.1 v -28.1 c 0,-2.3 -1.8,-4.1 -4,-4.1 z m -39.2,10 c 0,1.1 -0.9,2 -2,2 h -4 c -1.1,0 -2,-0.9 -2,-2 v -4 c 0,-1.1 0.9,-2 2,-2 h 4 c 1.1,0 2,0.9 2,2 z m 16.6,22.6 c -6.9,0 -12.5,-5.6 -12.5,-12.5 0,-6.9 5.6,-12.5 12.5,-12.5 6.9,0 12.6,5.6 12.6,12.5 0,6.9 -5.7,12.5 -12.6,12.5 z"
   id="path81"
   style="fill:#ffffff" />
					<path
   class="st2"
   d="m 404.4,522.6 c -5.5,0 -10,4.5 -10,10 0,5.5 4.5,10 10,10 5.5,0 10,-4.5 10,-10 0,-5.5 -4.5,-10 -10,-10 z m 0,16.6 c -3.6,0 -6.5,-2.9 -6.5,-6.5 0,-3.6 2.9,-6.5 6.5,-6.5 3.6,0 6.5,2.9 6.5,6.5 0,3.6 -2.9,6.5 -6.5,6.5 z"
   id="path83" />
				</g>
				
				<g
   id="g144"
   transform="matrix(1,0,0,1.0116262,1.65816,-5.661965)">
					<g
   id="g124"
   transform="matrix(1,0,0,1.0871338,0,-45.658089)">
						<g
   id="g122">
							<rect
   x="257"
   y="523"
   class="st9"
   width="107"
   height="2.3038189"
   id="rect120"
   style="fill:#ffffff;stroke-width:1.51783" />
						</g>
					<g
   id="g118"
   transform="matrix(0.98691442,0,0,0.93590725,3.4022511,13.145424)">
					<g
   id="g92">
						<text
   transform="scale(0.96843512,1.0325937)"
   class="st5 st6 st7 st8"
   id="text86"
   style="font-style:normal;font-variant:normal;font-weight:bold;font-stretch:normal;font-size:25.1467px;font-family:GnuolaneRg-Regular;-inkscape-font-specification:'GnuolaneRg-Regular, Bold';font-variant-ligatures:normal;font-variant-caps:normal;font-variant-numeric:normal;font-variant-east-asian:normal;letter-spacing:0.949285;fill:#ffffff;stroke-width:1.18661"
   x="398.47574"
   y="233.08058">1983</text>
						<g
   id="g90">
							<path
   class="st5"
   d="m 422.50174,261.3 c -21.63252,0 -39.15486,-13.50418 -39.15486,-30.11646 0,-16.61228 17.52234,-30.11646 39.15486,-30.11646 21.63252,0 39.15487,13.50418 39.15487,30.11646 0,16.61228 -17.52235,30.11646 -39.15487,30.11646 z m 0,-58.19657 c -20.2264,0 -36.66713,12.64677 -36.66713,28.18729 0,15.54052 16.44073,28.18729 36.66713,28.18729 20.22641,0 36.66713,-12.64677 36.66713,-28.18729 0,-15.54052 -16.44072,-28.18729 -36.66713,-28.18729 z"
   id="path88"
   style="stroke-width:1.07669" />
						</g>
					</g>
					<g
   id="g98">
						<g
   id="g96">
							<rect
   x="258.87991"
   y="238"
   class="st5"
   width="125"
   height="5.2199435"
   id="rect94"
   style="stroke-width:2.28472" />
						</g>
					</g>
					<g
   id="g104">
						<g
   id="g102">
							<rect
   x="315.41968"
   y="229"
   class="st5"
   width="68"
   height="3.6374645"
   id="rect100"
   style="stroke-width:1.90721" />
						</g>
					</g>
					<g
   id="g110">
						<g
   id="g108">
							<rect
   x="459.01126"
   y="238.84096"
   class="st5"
   width="122.79733"
   height="5.2954621"
   id="rect94-1"
   style="fill:#ffffff;stroke-width:2.28082" />
						</g>
					</g>
					<g
   id="g116"
   transform="matrix(1,0,0,1.2509188,0,-56.85819)">
						<g
   id="g114">
							<polyline
   class="st5"
   points="526.4,226.6 536.4,228.3 467.5,228.3 457.5,226.6        "
   id="polyline112"
   transform="matrix(1,0,0,1.4539307,0,-102.8607)" />
						</g>
					</g>
				</g></g>
					<g
   id="g130"
   style="fill:#ffffff">
						<g
   id="g128"
   style="fill:#ffffff">
							<rect
   x="313"
   y="531.5"
   class="st9"
   width="51"
   height="2"
   id="rect126"
   style="fill:#ffffff;stroke-width:1.41421" />
						</g>
					</g>
					<g
   id="g136"
   style="fill:#ffffff">
						<g
   id="g134"
   style="fill:#ffffff">
							<rect
   x="443.70001"
   y="523"
   class="st9"
   width="106"
   height="1.8"
   id="rect132"
   style="fill:#ffffff" />
						</g>
					</g>
					<g
   id="g142"
   style="fill:#ffffff">
						<g
   id="g140"
   style="fill:#ffffff">
							<rect
   x="443.70001"
   y="531.90002"
   class="st9"
   width="51.200001"
   height="1.8"
   id="rect138"
   style="fill:#ffffff" />
						</g>
					</g>
				</g>
				
				
				
				<text
   transform="scale(0.87632727,1.1411262)"
   id="text160"
   style="font-style:normal;font-variant:normal;font-weight:normal;font-stretch:normal;font-size:135.474px;font-family:Figtree;-inkscape-font-specification:'Figtree, @wght=700';font-variant-ligatures:normal;font-variant-caps:normal;font-variant-numeric:normal;font-variant-east-asian:normal;font-variation-settings:'wght' 700;stroke-width:11.2895"
   x="72.653595"
   y="335.40689"><tspan
     id="tspan38801"
     x="72.653595"
     y="335.40689"
     style="fill:#ffffff;stroke-width:11.2895">Photography</tspan></text>
				<rect
   x="180"
   y="437"
   class="st1"
   width="71"
   height="61"
   id="rect162" />
				<rect
   x="557"
   y="437"
   class="st1"
   width="70"
   height="61"
   id="rect164" />
				<polygon
   class="st16"
   points="251,437.2 251,497.2 209,481.3 209,421.3 "
   id="polygon166" />
				<polygon
   class="st16"
   points="557,437.2 557,497.2 599,481.3 599,421.3 "
   id="polygon168" />
				<path
   class="st2"
   d="m 569.6,481.4 h -330 c -16.6,0 -30,-13.4 -30,-30 v 0 c 0,-16.6 13.4,-30 30,-30 h 330 c 16.6,0 30,13.4 30,30 v 0 c 0,16.6 -13.4,30 -30,30 z"
   id="path170" />
				<text
   transform="scale(0.88624326,1.1283584)"
   class="st9 st17 st18"
   id="text172"
   x="249.1402"
   y="407.43738"
   style="font-style:normal;font-variant:normal;font-weight:bold;font-stretch:normal;font-size:23.677px;font-family:NotoSerif-Bold;-inkscape-font-specification:'NotoSerif-Bold, Bold';font-variant-ligatures:normal;font-variant-caps:normal;font-variant-numeric:normal;font-variant-east-asian:normal;fill:#ffffff;stroke-width:0.886244">PHOTOS FOR ALL OCCASSIONS</text>
			</g>
		</g>
	</g>
	
	
	
</g>
</svg>
